<?xml version="1.0" standalone="no"?>
<!DOCTYPE svg PUBLIC "-//W3C//DTD SVG 1.1//EN" "http://www.w3.org/Graphics/SVG/1.1/DTD/svg11.dtd">
<svg viewBox="0 0 256 256" version="1.1">
<rect x="0" y="0" width="256" height="256" fill="#111111" />
<rect x="3" y="3" width="10" height="10" fill="#222222" />
<rect x="3" y="19" width="10" height="10" fill="#222222" />
<rect x="3" y="35" width="10" height="10" fill="#222222" />
<rect x="3" y="51" width="10" height="10" fill="#222222" />
<rect x="3" y="67" width="10" height="10" fill="#FFFFFF" />
<rect x="3" y="83" width="10" height="10" fill="#FFFFFF" />
<rect x="3" y="99" width="10" height="10" fill="#FFFFFF" />
<rect x="3" y="115" width="10" height="10" fill="#FFFFFF" />
<rect x="3" y="131" width="10" height="10" fill="#FFFFFF" />
<rect x="3" y="147" width="10" height="10" fill="#FFFFFF" />
<rect x="3" y="163" width="10" height="10" fill="#222222" />
<rect x="3" y="179" width="10" height="10" fill="#222222" />
<rect x="3" y="195" width="10" height="10" fill="#222222" />
<rect x="3" y="211" width="10" height="10" fill="#222222" />
<rect x="3" y="227" width="10" height="10" fill="#222222" />
<rect x="3" y="243" width="10" height="10" fill="#222222" />
<rect x="19" y="3" width="10" height="10" fill="#222222" />
<rect x="19" y="19" width="10" height="10" fill="#222222" />
<rect x="19" y="35" width="10" height="10" fill="#222222" />
<rect x="19" y="51" width="10" height="10" fill="#222222" />
<rect x="19" y="67" width="10" height="10" fill="#FFFFFF" />
<rect x="19" y="83" width="10" height="10" fill="#FFFFFF" />
<rect x="19" y="99" width="10" height="10" fill="#FFFFFF" />
<rect x="19" y="115" width="10" height="10" fill="#FFFFFF" />
<rect x="19" y="131" width="10" height="10" fill="#FFFFFF" />
<rect x="19" y="147" width="10" height="10" fill="#FFFFFF" />
<rect x="19" y="163" width="10" height="10" fill="#FFFFFF" />
<rect x="19" y="179" width="10" height="10" fill="#222222" />
<rect x="19" y="195" width="10" height="10" fill="#222222" />
<rect x="19" y="211" width="10" height="10" fill="#222222" />
<rect x="19" y="227" width="10" height="10" fill="#222222" />
<rect x="19" y="243" width="10" height="10" fill="#222222" />
<rect x="35" y="3" width="10" height="10" fill="#222222" />
<rect x="35" y="19" width="10" height="10" fill="#222222" />
<rect x="35" y="35" width="10" height="10" fill="#222222" />
<rect x="35" y="51" width="10" height="10" fill="#222222" />
<rect x="35" y="67" width="10" height="10" fill="#222222" />
<rect x="35" y="83" width="10" height="10" fill="#222222" />
<rect x="35" y="99" width="10" height="10" fill="#222222" />
<rect x="35" y="115" width="10" height="10" fill="#222222" />
<rect x="35" y="131" width="10" height="10" fill="#222222" />
<rect x="35" y="147" width="10" height="10" fill="#222222" />
<rect x="35" y="163" width="10" height="10" fill="#FFFFFF" />
<rect x="35" y="179" width="10" height="10" fill="#FFFFFF" />
<rect x="35" y="195" width="10" height="10" fill="#222222" />
<rect x="35" y="211" width="10" height="10" fill="#222222" />
<rect x="35" y="227" width="10" height="10" fill="#222222" />
<rect x="35" y="243" width="10" height="10" fill="#222222" />
<rect x="51" y="3" width="10" height="10" fill="#222222" />
<rect x="51" y="19" width="10" height="10" fill="#222222" />
<rect x="51" y="35" width="10" height="10" fill="#222222" />
<rect x="51" y="51" width="10" height="10" fill="#222222" />
<rect x="51" y="67" width="10" height="10" fill="#222222" />
<rect x="51" y="83" width="10" height="10" fill="#222222" />
<rect x="51" y="99" width="10" height="10" fill="#222222" />
<rect x="51" y="115" width="10" height="10" fill="#222222" />
<rect x="51" y="131" width="10" height="10" fill="#222222" />
<rect x="51" y="147" width="10" height="10" fill="#222222" />
<rect x="51" y="163" width="10" height="10" fill="#FFFFFF" />
<rect x="51" y="179" width="10" height="10" fill="#FFFFFF" />
<rect x="51" y="195" width="10" height="10" fill="#222222" />
<rect x="51" y="211" width="10" height="10" fill="#222222" />
<rect x="51" y="227" width="10" height="10" fill="#222222" />
<rect x="51" y="243" width="10" height="10" fill="#222222" />
<rect x="67" y="3" width="10" height="10" fill="#222222" />
<rect x="67" y="19" width="10" height="10" fill="#222222" />
<rect x="67" y="35" width="10" height="10" fill="#222222" />
<rect x="67" y="51" width="10" height="10" fill="#222222" />
<rect x="67" y="67" width="10" height="10" fill="#FFFFFF" />
<rect x="67" y="83" width="10" height="10" fill="#FFFFFF" />
<rect x="67" y="99" width="10" height="10" fill="#FFFFFF" />
<rect x="67" y="115" width="10" height="10" fill="#FFFFFF" />
<rect x="67" y="131" width="10" height="10" fill="#FFFFFF" />
<rect x="67" y="147" width="10" height="10" fill="#FFFFFF" />
<rect x="67" y="163" width="10" height="10" fill="#FFFFFF" />
<rect x="67" y="179" width="10" height="10" fill="#222222" />
<rect x="67" y="195" width="10" height="10" fill="#222222" />
<rect x="67" y="211" width="10" height="10" fill="#222222" />
<rect x="67" y="227" width="10" height="10" fill="#222222" />
<rect x="67" y="243" width="10" height="10" fill="#222222" />
<rect x="83" y="3" width="10" height="10" fill="#222222" />
<rect x="83" y="19" width="10" height="10" fill="#222222" />
<rect x="83" y="35" width="10" height="10" fill="#222222" />
<rect x="83" y="51" width="10" height="10" fill="#222222" />
<rect x="83" y="67" width="10" height="10" fill="#FFFFFF" />
<rect x="83" y="83" width="10" height="10" fill="#FFFFFF" />
<rect x="83" y="99" width="10" height="10" fill="#FFFFFF" />
<rect x="83" y="115" width="10" height="10" fill="#FFFFFF" />
<rect x="83" y="131" width="10" height="10" fill="#FFFFFF" />
<rect x="83" y="147" width="10" height="10" fill="#FFFFFF" />
<rect x="83" y="163" width="10" height="10" fill="#222222" />
<rect x="83" y="179" width="10" height="10" fill="#222222" />
<rect x="83" y="195" width="10" height="10" fill="#222222" />
<rect x="83" y="211" width="10" height="10" fill="#222222" />
<rect x="83" y="227" width="10" height="10" fill="#222222" />
<rect x="83" y="243" width="10" height="10" fill="#222222" />
<rect x="99" y="3" width="10" height="10" fill="#222222" />
<rect x="99" y="19" width="10" height="10" fill="#222222" />
<rect x="99" y="35" width="10" height="10" fill="#222222" />
<rect x="99" y="51" width="10" height="10" fill="#222222" />
<rect x="99" y="67" width="10" height="10" fill="#222222" />
<rect x="99" y="83" width="10" height="10" fill="#222222" />
<rect x="99" y="99" width="10" height="10" fill="#222222" />
<rect x="99" y="115" width="10" height="10" fill="#222222" />
<rect x="99" y="131" width="10" height="10" fill="#222222" />
<rect x="99" y="147" width="10" height="10" fill="#222222" />
<rect x="99" y="163" width="10" height="10" fill="#222222" />
<rect x="99" y="179" width="10" height="10" fill="#222222" />
<rect x="99" y="195" width="10" height="10" fill="#222222" />
<rect x="99" y="211" width="10" height="10" fill="#222222" />
<rect x="99" y="227" width="10" height="10" fill="#222222" />
<rect x="99" y="243" width="10" height="10" fill="#222222" />
<rect x="115" y="3" width="10" height="10" fill="#222222" />
<rect x="115" y="19" width="10" height="10" fill="#222222" />
<rect x="115" y="35" width="10" height="10" fill="#222222" />
<rect x="115" y="51" width="10" height="10" fill="#222222" />
<rect x="115" y="67" width="10" height="10" fill="#FFFFFF" />
<rect x="115" y="83" width="10" height="10" fill="#FFFFFF" />
<rect x="115" y="99" width="10" height="10" fill="#222222" />
<rect x="115" y="115" width="10" height="10" fill="#222222" />
<rect x="115" y="131" width="10" height="10" fill="#222222" />
<rect x="115" y="147" width="10" height="10" fill="#222222" />
<rect x="115" y="163" width="10" height="10" fill="#222222" />
<rect x="115" y="179" width="10" height="10" fill="#222222" />
<rect x="115" y="195" width="10" height="10" fill="#222222" />
<rect x="115" y="211" width="10" height="10" fill="#222222" />
<rect x="115" y="227" width="10" height="10" fill="#222222" />
<rect x="115" y="243" width="10" height="10" fill="#222222" />
<rect x="131" y="3" width="10" height="10" fill="#222222" />
<rect x="131" y="19" width="10" height="10" fill="#222222" />
<rect x="131" y="35" width="10" height="10" fill="#222222" />
<rect x="131" y="51" width="10" height="10" fill="#222222" />
<rect x="131" y="67" width="10" height="10" fill="#FFFFFF" />
<rect x="131" y="83" width="10" height="10" fill="#FFFFFF" />
<rect x="131" y="99" width="10" height="10" fill="#222222" />
<rect x="131" y="115" width="10" height="10" fill="#222222" />
<rect x="131" y="131" width="10" height="10" fill="#222222" />
<rect x="131" y="147" width="10" height="10" fill="#222222" />
<rect x="131" y="163" width="10" height="10" fill="#222222" />
<rect x="131" y="179" width="10" height="10" fill="#222222" />
<rect x="131" y="195" width="10" height="10" fill="#222222" />
<rect x="131" y="211" width="10" height="10" fill="#222222" />
<rect x="131" y="227" width="10" height="10" fill="#222222" />
<rect x="131" y="243" width="10" height="10" fill="#222222" />
<rect x="147" y="3" width="10" height="10" fill="#222222" />
<rect x="147" y="19" width="10" height="10" fill="#222222" />
<rect x="147" y="35" width="10" height="10" fill="#222222" />
<rect x="147" y="51" width="10" height="10" fill="#222222" />
<rect x="147" y="67" width="10" height="10" fill="#FFFFFF" />
<rect x="147" y="83" width="10" height="10" fill="#FFFFFF" />
<rect x="147" y="99" width="10" height="10" fill="#FFFFFF" />
<rect x="147" y="115" width="10" height="10" fill="#FFFFFF" />
<rect x="147" y="131" width="10" height="10" fill="#FFFFFF" />
<rect x="147" y="147" width="10" height="10" fill="#FFFFFF" />
<rect x="147" y="163" width="10" height="10" fill="#FFFFFF" />
<rect x="147" y="179" width="10" height="10" fill="#FFFFFF" />
<rect x="147" y="195" width="10" height="10" fill="#222222" />
<rect x="147" y="211" width="10" height="10" fill="#222222" />
<rect x="147" y="227" width="10" height="10" fill="#222222" />
<rect x="147" y="243" width="10" height="10" fill="#222222" />
<rect x="163" y="3" width="10" height="10" fill="#222222" />
<rect x="163" y="19" width="10" height="10" fill="#222222" />
<rect x="163" y="35" width="10" height="10" fill="#222222" />
<rect x="163" y="51" width="10" height="10" fill="#222222" />
<rect x="163" y="67" width="10" height="10" fill="#FFFFFF" />
<rect x="163" y="83" width="10" height="10" fill="#FFFFFF" />
<rect x="163" y="99" width="10" height="10" fill="#FFFFFF" />
<rect x="163" y="115" width="10" height="10" fill="#FFFFFF" />
<rect x="163" y="131" width="10" height="10" fill="#FFFFFF" />
<rect x="163" y="147" width="10" height="10" fill="#FFFFFF" />
<rect x="163" y="163" width="10" height="10" fill="#FFFFFF" />
<rect x="163" y="179" width="10" height="10" fill="#FFFFFF" />
<rect x="163" y="195" width="10" height="10" fill="#222222" />
<rect x="163" y="211" width="10" height="10" fill="#222222" />
<rect x="163" y="227" width="10" height="10" fill="#222222" />
<rect x="163" y="243" width="10" height="10" fill="#222222" />
<rect x="179" y="3" width="10" height="10" fill="#222222" />
<rect x="179" y="19" width="10" height="10" fill="#222222" />
<rect x="179" y="35" width="10" height="10" fill="#222222" />
<rect x="179" y="51" width="10" height="10" fill="#222222" />
<rect x="179" y="67" width="10" height="10" fill="#FFFFFF" />
<rect x="179" y="83" width="10" height="10" fill="#FFFFFF" />
<rect x="179" y="99" width="10" height="10" fill="#222222" />
<rect x="179" y="115" width="10" height="10" fill="#222222" />
<rect x="179" y="131" width="10" height="10" fill="#222222" />
<rect x="179" y="147" width="10" height="10" fill="#222222" />
<rect x="179" y="163" width="10" height="10" fill="#222222" />
<rect x="179" y="179" width="10" height="10" fill="#222222" />
<rect x="179" y="195" width="10" height="10" fill="#222222" />
<rect x="179" y="211" width="10" height="10" fill="#222222" />
<rect x="179" y="227" width="10" height="10" fill="#222222" />
<rect x="179" y="243" width="10" height="10" fill="#222222" />
<rect x="195" y="3" width="10" height="10" fill="#222222" />
<rect x="195" y="19" width="10" height="10" fill="#222222" />
<rect x="195" y="35" width="10" height="10" fill="#222222" />
<rect x="195" y="51" width="10" height="10" fill="#222222" />
<rect x="195" y="67" width="10" height="10" fill="#FFFFFF" />
<rect x="195" y="83" width="10" height="10" fill="#FFFFFF" />
<rect x="195" y="99" width="10" height="10" fill="#222222" />
<rect x="195" y="115" width="10" height="10" fill="#00FF00" />
<rect x="195" y="131" width="10" height="10" fill="#00FF00" />
<rect x="195" y="147" width="10" height="10" fill="#00FF00" />
<rect x="195" y="163" width="10" height="10" fill="#00FF00" />
<rect x="195" y="179" width="10" height="10" fill="#222222" />
<rect x="195" y="195" width="10" height="10" fill="#222222" />
<rect x="195" y="211" width="10" height="10" fill="#222222" />
<rect x="195" y="227" width="10" height="10" fill="#222222" />
<rect x="195" y="243" width="10" height="10" fill="#222222" />
<rect x="211" y="3" width="10" height="10" fill="#222222" />
<rect x="211" y="19" width="10" height="10" fill="#222222" />
<rect x="211" y="35" width="10" height="10" fill="#222222" />
<rect x="211" y="51" width="10" height="10" fill="#222222" />
<rect x="211" y="67" width="10" height="10" fill="#222222" />
<rect x="211" y="83" width="10" height="10" fill="#222222" />
<rect x="211" y="99" width="10" height="10" fill="#00FF00" />
<rect x="211" y="115" width="10" height="10" fill="#222222" />
<rect x="211" y="131" width="10" height="10" fill="#00FF00" />
<rect x="211" y="147" width="10" height="10" fill="#222222" />
<rect x="211" y="163" width="10" height="10" fill="#222222" />
<rect x="211" y="179" width="10" height="10" fill="#00FF00" />
<rect x="211" y="195" width="10" height="10" fill="#222222" />
<rect x="211" y="211" width="10" height="10" fill="#222222" />
<rect x="211" y="227" width="10" height="10" fill="#222222" />
<rect x="211" y="243" width="10" height="10" fill="#222222" />
<rect x="227" y="3" width="10" height="10" fill="#222222" />
<rect x="227" y="19" width="10" height="10" fill="#222222" />
<rect x="227" y="35" width="10" height="10" fill="#222222" />
<rect x="227" y="51" width="10" height="10" fill="#222222" />
<rect x="227" y="67" width="10" height="10" fill="#222222" />
<rect x="227" y="83" width="10" height="10" fill="#222222" />
<rect x="227" y="99" width="10" height="10" fill="#00FF00" />
<rect x="227" y="115" width="10" height="10" fill="#222222" />
<rect x="227" y="131" width="10" height="10" fill="#00FF00" />
<rect x="227" y="147" width="10" height="10" fill="#222222" />
<rect x="227" y="163" width="10" height="10" fill="#222222" />
<rect x="227" y="179" width="10" height="10" fill="#00FF00" />
<rect x="227" y="195" width="10" height="10" fill="#222222" />
<rect x="227" y="211" width="10" height="10" fill="#222222" />
<rect x="227" y="227" width="10" height="10" fill="#222222" />
<rect x="227" y="243" width="10" height="10" fill="#222222" />
<rect x="243" y="3" width="10" height="10" fill="#222222" />
<rect x="243" y="19" width="10" height="10" fill="#222222" />
<rect x="243" y="35" width="10" height="10" fill="#222222" />
<rect x="243" y="51" width="10" height="10" fill="#222222" />
<rect x="243" y="67" width="10" height="10" fill="#222222" />
<rect x="243" y="83" width="10" height="10" fill="#222222" />
<rect x="243" y="99" width="10" height="10" fill="#222222" />
<rect x="243" y="115" width="10" height="10" fill="#222222" />
<rect x="243" y="131" width="10" height="10" fill="#222222" />
<rect x="243" y="147" width="10" height="10" fill="#00FF00" />
<rect x="243" y="163" width="10" height="10" fill="#00FF00" />
<rect x="243" y="179" width="10" height="10" fill="#222222" />
<rect x="243" y="195" width="10" height="10" fill="#222222" />
<rect x="243" y="211" width="10" height="10" fill="#222222" />
<rect x="243" y="227" width="10" height="10" fill="#222222" />
<rect x="243" y="243" width="10" height="10" fill="#222222" />
</svg>
